<?xml version="1.0" encoding="UTF-8"?>
<svg version="1.1" xmlns="http://www.w3.org/2000/svg" width="512" height="512">
<path d="M0 0 C0.73003235 -0.00902847 1.4600647 -0.01805695 2.21221924 -0.02735901 C3.75537025 -0.04184033 5.29858236 -0.05074299 6.84179688 -0.05444336 C9.18206744 -0.06629957 11.51966371 -0.11546326 13.859375 -0.16601562 C28.55579184 -0.32526533 28.55579184 -0.32526533 34.453125 5.37109375 C44.39179018 16.09439039 40.453125 22.7480375 40.453125 40.37109375 C97.873125 40.37109375 155.293125 40.37109375 214.453125 40.37109375 C214.453125 31.79109375 214.453125 23.21109375 214.453125 14.37109375 C221.46844229 3.14658609 221.46844229 3.14658609 228.453125 0.37109375 C231.00527904 0.14431994 233.44645684 0.01961968 236 0 C236.73003235 -0.00902847 237.4600647 -0.01805695 238.21221924 -0.02735901 C239.75537025 -0.04184033 241.29858236 -0.05074299 242.84179688 -0.05444336 C245.18206744 -0.06629957 247.51966371 -0.11546326 249.859375 -0.16601562 C264.55579184 -0.32526533 264.55579184 -0.32526533 270.453125 5.37109375 C274.95976071 10.23351649 276.71349393 13.81346325 276.6484375 20.44921875 C276.64199219 21.609375 276.63554687 22.76953125 276.62890625 23.96484375 C276.61214844 25.17140625 276.59539062 26.37796875 276.578125 27.62109375 C276.56910156 28.843125 276.56007813 30.06515625 276.55078125 31.32421875 C276.52722013 34.34004157 276.49432206 37.35546867 276.453125 40.37109375 C277.76748535 40.33967285 277.76748535 40.33967285 279.10839844 40.30761719 C282.41856802 40.2386735 285.7279543 40.18892811 289.03857422 40.15136719 C290.46024762 40.13148364 291.88184183 40.10436648 293.30322266 40.06933594 C309.25478142 39.68658859 322.24020686 43.78141156 334.453125 54.37109375 C345.0561785 67.08685996 348.76241124 77.99802817 348.72055054 94.40081787 C348.72508165 95.70592324 348.72961276 97.0110286 348.73428118 98.35568261 C348.74647201 101.96296974 348.74625536 105.57016386 348.74389243 109.17746687 C348.74348327 113.07399379 348.75453287 116.97049129 348.76400757 120.86700439 C348.78059704 128.49538511 348.78611619 136.1237349 348.78723232 143.75213215 C348.78818378 149.9551231 348.79229892 156.15810388 348.79863358 162.36109161 C348.81624041 179.96105272 348.82547332 197.56098947 348.82397263 215.16095945 C348.82389272 216.10912213 348.8238128 217.05728481 348.82373047 218.03417969 C348.82364871 218.98350468 348.82356695 219.93282967 348.82348271 220.91092208 C348.82266997 236.29268176 348.84180595 251.67434348 348.8700072 267.05607483 C348.89875856 282.86300648 348.91254626 298.66989039 348.91081965 314.47684884 C348.91015653 323.34599461 348.9156148 332.21503768 348.93717575 341.08415985 C348.9554172 348.63599081 348.95971061 356.1876725 348.9461569 363.73951599 C348.93964215 367.58916927 348.93945561 371.43853645 348.9568634 375.28816223 C348.97557879 379.47013463 348.96300085 383.65144916 348.94760132 387.83343506 C348.95788844 389.03812746 348.96817557 390.24281986 348.97877443 391.48401809 C348.86365535 405.67297594 343.68405189 417.6638973 334.453125 428.37109375 C325.1045887 436.48955948 313.91304513 442.48465272 301.37220001 442.50531483 C300.1176138 442.50977267 298.86302758 442.51423051 297.5704236 442.51882344 C296.17557048 442.51873415 294.78071736 442.5185443 293.38586426 442.51826477 C291.90603524 442.52156433 290.42620711 442.5252901 288.94638014 442.52940625 C284.87401696 442.53942409 280.80166853 442.54314271 276.72929478 442.54579556 C272.3391768 442.54969931 267.94907049 442.55927768 263.55895996 442.56800842 C252.95313731 442.58777199 242.34731371 442.59783942 231.74147725 442.60673621 C226.74610281 442.61111975 221.75072944 442.61648643 216.75535583 442.62172508 C200.14751658 442.63873811 183.53967799 442.65323166 166.93183136 442.66047382 C162.62187194 442.6623837 158.31191252 442.66430403 154.00195312 442.66625977 C152.39513575 442.66698538 152.39513575 442.66698538 150.75585741 442.66772565 C133.40802844 442.6760236 116.06026848 442.70135624 98.71246964 442.73384044 C80.89876819 442.76692485 63.08510179 442.78492388 45.27136946 442.78811806 C35.27092174 442.790282 25.27057462 442.79901352 15.27015686 442.82457924 C6.75205905 442.84630518 -1.76591373 442.85432737 -10.2840361 442.84461246 C-14.62781985 442.8400731 -18.97134574 442.84193262 -23.31509399 442.8613739 C-27.2978192 442.87904484 -31.28009917 442.87797631 -35.26282936 442.86247661 C-36.69764334 442.86010646 -38.13248847 442.86439316 -39.56725496 442.87630526 C-55.11511717 442.99731353 -67.72125909 438.56623647 -79.546875 428.37109375 C-87.42114115 419.30375698 -93.65841291 408.14135687 -93.68109608 395.91486359 C-93.68555392 394.79961319 -93.69001176 393.6843628 -93.69460469 392.53531694 C-93.69442033 391.31005029 -93.69423597 390.08478364 -93.69404602 388.8223877 C-93.69772271 387.52070003 -93.7013994 386.21901237 -93.7051875 384.87787962 C-93.71519986 381.26157922 -93.71892307 377.64529541 -93.72157681 374.02898312 C-93.72548221 370.12966648 -93.73506048 366.23036295 -93.74378967 362.33105469 C-93.76354889 352.91174656 -93.77362025 343.49243736 -93.78251746 334.07311368 C-93.78690183 329.63561003 -93.79226831 325.19810757 -93.79750633 320.76060486 C-93.81451915 306.00569151 -93.82901233 291.25077889 -93.83625507 276.49585724 C-93.83816492 272.66716002 -93.84008526 268.83846282 -93.84204102 265.00976562 C-93.84252476 264.05817863 -93.8430085 263.10659163 -93.8435069 262.12616867 C-93.85180347 246.71829346 -93.87713385 231.31049599 -93.90962169 215.90265471 C-93.94271631 200.07777491 -93.96070606 184.25293458 -93.96389931 168.42802 C-93.96606234 159.54539387 -93.97478042 150.66288105 -94.00036049 141.7802887 C-94.02210045 134.21372952 -94.03010179 126.64731117 -94.02039371 119.0807243 C-94.01585833 115.22299214 -94.01769035 111.36555034 -94.03715515 107.50785828 C-94.05811782 103.31692579 -94.04777155 99.12663318 -94.03462219 94.93566895 C-94.04559144 93.72824807 -94.05656068 92.52082719 -94.06786233 91.2768178 C-93.9606223 77.0782101 -88.78416795 65.08567436 -79.546875 54.37109375 C-69.71910436 45.83645083 -58.4599281 40.21981075 -45.375 40.2734375 C-44.3513736 40.27555992 -44.3513736 40.27555992 -43.30706787 40.27772522 C-41.13695816 40.28330291 -38.9669533 40.29585121 -36.796875 40.30859375 C-35.32161608 40.31361164 -33.84635553 40.31817404 -32.37109375 40.32226562 C-28.76298702 40.333265 -25.15494125 40.35051422 -21.546875 40.37109375 C-21.57305908 39.62537109 -21.59924316 38.87964844 -21.6262207 38.11132812 C-21.73083051 34.69813517 -21.79540469 31.28528047 -21.859375 27.87109375 C-21.90126953 26.69804688 -21.94316406 25.525 -21.98632812 24.31640625 C-22.08917608 16.99363172 -21.49519307 11.96649957 -16.546875 6.37109375 C-11.24241141 1.45476165 -7.16201466 0.05502803 0 0 Z M0.453125 22.37109375 C0.453125 41.51109375 0.453125 60.65109375 0.453125 80.37109375 C6.393125 80.37109375 12.333125 80.37109375 18.453125 80.37109375 C18.453125 61.23109375 18.453125 42.09109375 18.453125 22.37109375 C12.513125 22.37109375 6.573125 22.37109375 0.453125 22.37109375 Z M236.453125 22.37109375 C236.453125 41.51109375 236.453125 60.65109375 236.453125 80.37109375 C242.393125 80.37109375 248.333125 80.37109375 254.453125 80.37109375 C254.453125 61.23109375 254.453125 42.09109375 254.453125 22.37109375 C248.513125 22.37109375 242.573125 22.37109375 236.453125 22.37109375 Z M-62.546875 70.37109375 C-73.30300485 82.99398994 -71.546875 95.67267173 -71.546875 112.37109375 C59.793125 112.37109375 191.133125 112.37109375 326.453125 112.37109375 C327.34146159 90.29990027 327.34146159 90.29990027 318.453125 71.37109375 C308.77593225 63.12503514 298.80076567 62.19942982 286.515625 62.30859375 C285.0605957 62.31536133 285.0605957 62.31536133 283.57617188 62.32226562 C281.2017574 62.33396225 278.82747479 62.35035289 276.453125 62.37109375 C276.44901611 63.11681641 276.44490723 63.86253906 276.44067383 64.63085938 C276.40755979 68.04504887 276.3368939 71.45749609 276.265625 74.87109375 C276.25692383 76.63066406 276.25692383 76.63066406 276.24804688 78.42578125 C276.03416414 86.88603146 274.80670039 91.85237063 268.94067383 97.94091797 C262.89571505 102.78062222 255.1136127 102.12474079 247.76269531 102.02294922 C245.45731279 101.99614245 243.15679639 102.02276585 240.8515625 102.0546875 C232.85940143 102.07785256 226.62156753 101.99090077 220.453125 96.37109375 C215.453125 88.37109375 215.453125 88.37109375 214.453125 62.37109375 C157.033125 62.37109375 99.613125 62.37109375 40.453125 62.37109375 C40.123125 70.95109375 39.793125 79.53109375 39.453125 88.37109375 C32.58679606 99.35722005 32.58679606 99.35722005 26.453125 101.37109375 C21.53380224 101.98535977 16.714889 102.09152455 11.76269531 102.02294922 C9.45731279 101.99614245 7.15679639 102.02276585 4.8515625 102.0546875 C-8.84659141 102.09439122 -8.84659141 102.09439122 -14.03442383 97.94091797 C-20.846305 90.87063614 -21.31164515 84.52313022 -21.359375 74.87109375 C-21.38451172 73.66710937 -21.40964844 72.463125 -21.43554688 71.22265625 C-21.49409549 68.27180626 -21.53061332 65.32242891 -21.546875 62.37109375 C-24.83846365 62.31203958 -28.12991256 62.27715 -31.421875 62.24609375 C-32.3396875 62.22933594 -33.2575 62.21257812 -34.203125 62.1953125 C-44.81547629 62.12057763 -54.11116769 63.50617332 -62.546875 70.37109375 Z M-71.546875 134.37109375 C-71.588125 176.56984375 -71.629375 218.76859375 -71.671875 262.24609375 C-71.69008301 275.57226074 -71.70829102 288.89842773 -71.72705078 302.62841797 C-71.7337395 314.5700831 -71.7337395 314.5700831 -71.73776245 326.51174927 C-71.73962632 331.83216132 -71.74695763 337.1525326 -71.75802612 342.47293091 C-71.77212803 349.26149664 -71.77585571 356.05000375 -71.77301955 362.83858323 C-71.77361254 365.32869295 -71.77757345 367.81880471 -71.78530526 370.3089025 C-71.79527552 373.67661949 -71.7928466 377.04411241 -71.78738403 380.41183472 C-71.79320936 381.3823987 -71.79903469 382.35296268 -71.80503654 383.3529377 C-71.75959825 393.79945064 -70.29521403 403.07864325 -63.546875 411.37109375 C-52.97175748 420.38228544 -42.15280143 420.52068816 -28.8646698 420.50480652 C-27.46332259 420.50667611 -26.06197591 420.5089774 -24.66063005 420.51167184 C-20.81921055 420.51777791 -16.97781285 420.51765765 -13.13638961 420.51647747 C-8.98972163 420.51627316 -4.8430606 420.52179507 -0.69639587 420.52653503 C7.42407976 420.53483551 15.54454813 420.5375896 23.66502766 420.53814741 C30.26660709 420.53862284 36.86818413 420.54067893 43.4697628 420.54384804 C62.19251 420.55265283 80.91525148 420.55726767 99.63800076 420.55651756 C100.6469942 420.55647761 101.65598764 420.55643765 102.69555664 420.55639648 C103.70578405 420.5563556 104.71601146 420.55631472 105.75685181 420.5562726 C122.12937253 420.55586614 138.50187025 420.56543615 154.87438432 420.57953485 C171.6915004 420.59390199 188.50860527 420.60080485 205.32572764 420.59994107 C214.76488414 420.59960923 224.20401653 420.60235085 233.6431675 420.61311913 C241.67959991 420.62222854 249.71599728 420.62439573 257.75243262 420.6176097 C261.85085894 420.61434678 265.94921803 420.61427959 270.04763794 420.62296295 C273.80366473 420.63083889 277.5595711 420.62938539 281.31559499 420.62067882 C283.30909613 420.61842341 285.30260103 420.62596387 287.29608756 420.63391846 C298.55909496 420.59075304 308.45312018 419.69523561 317.453125 412.37109375 C325.65286487 402.74825853 326.60951395 392.92179084 326.57337952 380.77259827 C326.57423553 379.71968094 326.57509155 378.66676361 326.57597351 377.5819397 C326.57762616 374.04948219 326.57210914 370.5170723 326.56665039 366.98461914 C326.56634401 364.41060354 326.56647762 361.83658785 326.56701565 359.26257229 C326.56754651 353.06882013 326.56293697 346.8750825 326.55651432 340.68133407 C326.54930546 333.51440299 326.54851908 326.34747697 326.54772949 319.18054199 C326.54248227 300.26489028 326.52852112 281.3492418 326.515625 262.43359375 C326.495 220.17296875 326.474375 177.91234375 326.453125 134.37109375 C195.113125 134.37109375 63.773125 134.37109375 -71.546875 134.37109375 Z " fill="#000000" transform="translate(128.546875,34.62890625)"/>
<path d="M0 0 C9.35614493 5.49894694 17.00548584 14.8466209 24.62939453 22.53442383 C25.69165659 23.60171799 26.75415536 24.66877661 27.81689453 25.7355957 C30.38211812 28.31167308 32.94416233 30.89088454 35.50439453 33.47192383 C39.80107093 31.830665 42.58859693 28.56881861 45.70361328 25.32739258 C46.92532956 24.08036466 48.14734448 22.83362925 49.36962891 21.5871582 C51.27796915 19.62941584 53.18297276 17.66866131 55.08227539 15.70214844 C72.73740349 -2.53741893 72.73740349 -2.53741893 87.12939453 -2.84057617 C101.08113448 -2.62460497 108.16727385 3.99258403 117.50439453 13.47192383 C117.99568848 13.96208984 118.48698242 14.45225586 118.99316406 14.95727539 C126.74475081 22.74880505 131.85679677 29.75306091 132.53173828 40.93286133 C132.35456109 57.38502924 120.57577704 66.79713248 109.62939453 77.53442383 C108.25890611 78.88983947 106.88910814 80.24595363 105.52001953 81.6027832 C102.18938996 84.90061022 98.84953759 88.18882213 95.50439453 91.47192383 C97.13687284 95.74783067 100.37238612 98.48624207 103.61376953 101.56567383 C104.85656014 102.77338684 106.09872722 103.98174177 107.34033203 105.19067383 C109.28652786 107.07541084 111.23677902 108.95514883 113.19873047 110.82348633 C122.62189949 119.82072236 132.08696833 128.99061231 132.66845703 142.90161133 C131.7806691 156.81028887 124.68884122 164.64848163 115.25439453 174.15942383 C114.55443359 174.89225586 113.85447266 175.62508789 113.13330078 176.38012695 C105.88337316 183.70268591 97.85121683 188.40616409 87.37939453 188.78442383 C70.85505702 188.50947645 60.73514524 174.84282743 50.00439453 164.03442383 C48.7884834 162.81348693 47.57233937 161.59278191 46.35595703 160.37231445 C43.40274487 157.40818369 40.45270055 154.44093424 37.50439453 151.47192383 C34.63422891 152.76963382 32.61964831 154.12330289 30.43920898 156.3894043 C29.86793777 156.97696503 29.29666656 157.56452576 28.70808411 158.16989136 C28.10074936 158.80323395 27.49341461 159.43657654 26.86767578 160.08911133 C25.55497129 161.43199591 24.24180536 162.77442954 22.92822266 164.11645508 C20.87362457 166.22663578 18.82315768 168.34041508 16.78100586 170.46264648 C14.80049081 172.51628308 12.80413757 174.5534471 10.80517578 176.58911133 C9.90935539 177.53305252 9.90935539 177.53305252 8.99543762 178.49606323 C2.86297863 184.6999039 -4.7914416 188.52644419 -13.62060547 188.72192383 C-27.50201428 188.49398608 -35.89268769 180.43322897 -45.24560547 171.09692383 C-45.98681641 170.38020508 -46.72802734 169.66348633 -47.49169922 168.92504883 C-55.33623803 161.12276067 -58.77609255 153.58120329 -59.49560547 142.47192383 C-58.81666774 127.17319363 -46.82390688 117.29036221 -36.62060547 107.34692383 C-35.24988475 105.99630356 -33.88008483 104.64474811 -32.51123047 103.29223633 C-29.18320963 100.00791797 -25.84297427 96.73651577 -22.49560547 93.47192383 C-23.77348144 90.65826455 -25.07989652 88.65227235 -27.30541992 86.5144043 C-27.86973221 85.96638153 -28.43404449 85.41835876 -29.01545715 84.85372925 C-29.62378891 84.27140533 -30.23212067 83.68908142 -30.85888672 83.08911133 C-32.15164497 81.82654141 -33.44394805 80.5635053 -34.73583984 79.30004883 C-36.76468607 77.32669701 -38.79711085 75.35748607 -40.83813477 73.39672852 C-58.88767961 56.01682376 -58.88767961 56.01682376 -59.56201172 42.97973633 C-59.20650196 29.55401498 -52.39598555 21.8804571 -43.49560547 12.47192383 C-42.89490234 11.81836914 -42.29419922 11.16481445 -41.67529297 10.49145508 C-30.76025602 -1.00740943 -15.33075338 -7.44536588 0 0 Z M-22.43310547 24.53442383 C-23.28775391 25.3568457 -24.14240234 26.17926758 -25.02294922 27.02661133 C-25.83892578 27.83356445 -26.65490234 28.64051758 -27.49560547 29.47192383 C-28.19814453 30.11387695 -28.90068359 30.75583008 -29.62451172 31.41723633 C-33.19313308 34.74000278 -35.83834591 37.4329339 -36.49560547 42.47192383 C-34.67128119 46.05758684 -32.46066789 48.7461232 -29.60668945 51.55615234 C-28.8325621 52.32367325 -28.05843475 53.09119415 -27.260849 53.88197327 C-26.42952957 54.69669601 -25.59821014 55.51141876 -24.74169922 56.35083008 C-23.88504166 57.1999144 -23.02838409 58.04899872 -22.14576721 58.92381287 C-19.41296907 61.63220894 -16.67384747 64.33406817 -13.93310547 67.03442383 C-10.32191773 70.59250122 -6.71732635 74.15706972 -3.11669922 77.72583008 C-2.28335556 78.54257706 -1.4500119 79.35932404 -0.59141541 80.20082092 C0.17955978 80.96518967 0.95053497 81.72955841 1.74487305 82.51708984 C2.42421402 83.18595718 3.10355499 83.85482452 3.80348206 84.54396057 C6.45171732 87.54570249 7.45282725 89.61421907 7.69384766 93.62304688 C6.61946674 99.4060999 1.52179946 103.16070173 -2.52685547 107.05395508 C-3.43310669 107.94934494 -4.33935791 108.8447348 -5.27307129 109.76725769 C-7.6757444 112.13658907 -10.0902519 114.49233542 -12.51202393 116.84204102 C-15.92917346 120.16429706 -19.32163921 123.51181186 -22.71813965 126.85514832 C-24.5266867 128.63247367 -26.3394963 130.40547361 -28.15686035 132.17378235 C-29.38318176 133.37094124 -29.38318176 133.37094124 -30.63427734 134.59228516 C-31.71896301 135.64649406 -31.71896301 135.64649406 -32.82556152 136.72200012 C-35.05470164 139.05776209 -35.46832136 140.32503815 -36.06591797 143.54223633 C-35.20005384 149.50839601 -31.61675844 152.29631738 -27.37060547 156.34692383 C-26.61005859 157.1177832 -25.84951172 157.88864258 -25.06591797 158.68286133 C-22.0104977 161.675066 -19.32010481 164.08181545 -15.44091797 165.91723633 C-7.96229987 164.78651688 -1.27903439 155.37737991 3.87158203 150.16723633 C4.63238068 149.40265106 5.39317932 148.6380658 6.17703247 147.85031128 C8.58028466 145.43495 10.98023494 143.01634985 13.37939453 140.59692383 C16.56144232 137.38834844 19.74674568 134.18305719 22.93408203 130.97973633 C23.6642453 130.24127472 24.39440857 129.50281311 25.146698 128.74197388 C25.82145172 128.06391693 26.49620544 127.38585999 27.19140625 126.68725586 C27.78460663 126.08881866 28.37780701 125.49038147 28.98898315 124.87380981 C31.79972478 122.27363183 34.513289 121.94931351 38.3085022 122.00241089 C41.04015449 122.58647691 42.21697902 123.59839097 44.26367188 125.48413086 C44.95789246 126.12191467 45.65211304 126.75969849 46.36737061 127.41680908 C49.89075861 130.80515048 53.32528307 134.27030005 56.73095703 137.77661133 C58.27202654 139.34490668 59.81371118 140.91259777 61.35595703 142.47973633 C63.75595539 144.92313786 66.15185792 147.3700613 68.53759766 149.82739258 C70.86148702 152.21778736 73.20090059 154.5920262 75.54345703 156.96411133 C76.25297516 157.70257294 76.96249329 158.44103455 77.69351196 159.20187378 C80.73744118 162.26207462 82.6991219 164.22510634 86.88012695 165.5065918 C90.07297283 165.46441261 90.93433511 164.93382474 93.19189453 162.72192383 C93.85576172 162.07739258 94.51962891 161.43286133 95.20361328 160.76879883 C95.96287109 160.01083008 96.72212891 159.25286133 97.50439453 158.47192383 C98.48021484 157.59020508 99.45603516 156.70848633 100.46142578 155.80004883 C101.47700455 154.85869355 102.49133463 153.91598931 103.50439453 152.97192383 C104.45314453 152.09536133 105.40189453 151.21879883 106.37939453 150.31567383 C108.71677953 147.59173375 108.71677953 147.59173375 109.25439453 144.12817383 C107.59407866 136.03413394 98.97152486 129.86174482 93.19970703 124.28051758 C91.63125888 122.74416311 90.06357235 121.2070308 88.49658203 119.66918945 C86.05447224 117.27662185 83.60826658 114.88902163 81.14892578 112.51416016 C78.75611145 110.20004431 76.38289186 107.86727076 74.01220703 105.53051758 C72.90451462 104.47398232 72.90451462 104.47398232 71.77444458 103.39610291 C68.61288454 100.2517056 66.72315663 98.12299732 65.28515625 93.84326172 C65.80317231 85.87746694 73.00272389 80.75552974 78.39111328 75.49536133 C80.1509909 73.75589129 81.91075311 72.01630449 83.67041016 70.27661133 C86.43985122 67.55079321 89.21171215 64.82748888 91.98608398 62.10668945 C94.66912656 59.47178277 97.34301503 56.82785021 100.01611328 54.18286133 C100.85148117 53.3692514 101.68684906 52.55564148 102.54753113 51.71737671 C103.31535416 50.95623566 104.08317719 50.1950946 104.87426758 49.41088867 C105.89208565 48.41211197 105.89208565 48.41211197 106.9304657 47.39315796 C108.614506 45.33751501 109.22049315 44.09859808 109.50439453 41.47192383 C107.53526034 36.07172248 104.04971076 32.62372551 100.00439453 28.72192383 C99.42302734 28.14571289 98.84166016 27.56950195 98.24267578 26.97583008 C93.70712253 22.34671574 93.70712253 22.34671574 87.81689453 19.90942383 C80.02055742 21.23333013 73.53277692 30.31868329 68.13720703 35.77661133 C66.99600906 36.92348923 66.99600906 36.92348923 65.83175659 38.09353638 C63.4285044 40.50889765 61.02855412 42.9274978 58.62939453 45.34692383 C55.44734674 48.55549921 52.26204338 51.76079047 49.07470703 54.96411133 C48.34454376 55.70257294 47.61438049 56.44103455 46.86209106 57.20187378 C46.18733734 57.87993073 45.51258362 58.55798767 44.81738281 59.2565918 C44.22418243 59.85502899 43.63098206 60.45346619 43.01980591 61.07003784 C40.98148701 62.9556583 39.62311154 63.44931106 36.87939453 63.97192383 C29.0539586 62.81259999 22.52547951 53.61778263 17.13720703 48.16723633 C16.37640839 47.40265106 15.61560974 46.6380658 14.83175659 45.85031128 C12.4285044 43.43495 10.02855412 41.01634985 7.62939453 38.59692383 C4.44734674 35.38834844 1.26204338 32.18305719 -1.92529297 28.97973633 C-2.65545624 28.24127472 -3.38561951 27.50281311 -4.13790894 26.74197388 C-4.81266266 26.06391693 -5.48741638 25.38585999 -6.18261719 24.68725586 C-6.77581757 24.08881866 -7.36901794 23.49038147 -7.98019409 22.87380981 C-10.14269133 20.8733137 -11.34941237 20.48834774 -14.31201172 20.15551758 C-18.32602889 20.55445671 -19.56714371 21.75207198 -22.43310547 24.53442383 Z " fill="#000000" transform="translate(219.49560546875,220.528076171875)"/>
</svg>
