<?xml version="1.0" standalone="no"?>
<!DOCTYPE svg PUBLIC "-//W3C//DTD SVG 20010904//EN"
 "http://www.w3.org/TR/2001/REC-SVG-20010904/DTD/svg10.dtd">
<svg version="1.0" xmlns="http://www.w3.org/2000/svg"
 width="512.000000pt" height="512.000000pt" viewBox="0 0 512.000000 512.000000"
 preserveAspectRatio="xMidYMid meet">

<g transform="translate(0.000000,512.000000) scale(0.100000,-0.100000)"
fill="#000000" stroke="none">
<path d="M1224 4426 c-17 -8 -39 -24 -48 -37 -20 -30 -21 -98 0 -127 37 -53
27 -52 659 -52 640 0 670 -2 805 -59 210 -88 378 -280 435 -499 8 -33 15 -65
15 -71 0 -8 -268 -11 -936 -13 l-936 -3 -29 -33 c-59 -66 -30 -163 56 -182 23
-6 427 -10 943 -10 765 0 902 -2 902 -14 0 -8 -10 -45 -21 -82 -89 -290 -332
-495 -632 -534 -39 -5 -281 -10 -535 -10 l-464 0 -34 -34 c-45 -45 -47 -99 -6
-147 130 -157 1520 -1678 1545 -1692 82 -46 182 33 157 124 -7 24 -201 245
-686 779 l-675 745 383 5 c359 5 388 7 468 29 380 102 661 410 725 794 l6 37
242 0 c133 0 260 5 282 10 86 19 115 116 56 182 l-29 33 -275 3 -274 3 -17 82
c-39 183 -123 343 -248 473 l-80 83 447 3 447 3 29 33 c53 59 35 148 -37 178
-49 21 -2593 20 -2640 0z"/>
</g>
</svg>
