<?xml version="1.0" encoding="UTF-8"?>
<svg version="1.1" xmlns="http://www.w3.org/2000/svg" width="48" height="48">
<path d="M0 0 C1.66579102 -0.04930664 1.66579102 -0.04930664 3.36523438 -0.09960938 C4.42935547 -0.10669922 5.49347656 -0.11378906 6.58984375 -0.12109375 C7.56687256 -0.13454834 8.54390137 -0.14800293 9.55053711 -0.16186523 C12.0625 0.4375 12.0625 0.4375 13.90454102 2.78491211 C15.0625 5.4375 15.0625 5.4375 15.0625 8.4375 C16.0525 8.4375 17.0425 8.4375 18.0625 8.4375 C17.7840625 9.2728125 17.7840625 9.2728125 17.5 10.125 C16.98698835 12.836633 17.3984276 14.78121039 18.0625 17.4375 C17.36415039 17.27523926 16.66580078 17.11297852 15.94628906 16.94580078 C12.87927949 16.40520529 10.03516429 16.30801062 6.921875 16.3046875 C5.19324219 16.30275391 5.19324219 16.30275391 3.4296875 16.30078125 C1.63917969 16.30658203 1.63917969 16.30658203 -0.1875 16.3125 C-1.39664062 16.30863281 -2.60578125 16.30476563 -3.8515625 16.30078125 C-4.99882812 16.30207031 -6.14609375 16.30335937 -7.328125 16.3046875 C-8.9064209 16.30637939 -8.9064209 16.30637939 -10.51660156 16.30810547 C-12.88715345 16.16436723 -12.88715345 16.16436723 -13.9375 17.4375 C-14.17113881 19.28641946 -14.35053635 21.14238031 -14.5 23 C-14.644375 24.794375 -14.78875 26.58875 -14.9375 28.4375 C-8.9975 28.4375 -3.0575 28.4375 3.0625 28.4375 C2.4025 29.4275 1.7425 30.4175 1.0625 31.4375 C-1.9765625 31.73046875 -1.9765625 31.73046875 -5.5625 31.625 C-6.75101563 31.59792969 -7.93953125 31.57085937 -9.1640625 31.54296875 C-10.07929688 31.50816406 -10.99453125 31.47335938 -11.9375 31.4375 C-11.9375 32.7575 -11.9375 34.0775 -11.9375 35.4375 C-13.9175 35.4375 -15.8975 35.4375 -17.9375 35.4375 C-17.9375 26.4375 -17.9375 17.4375 -17.9375 8.4375 C-16.9475 8.4375 -15.9575 8.4375 -14.9375 8.4375 C-14.81375 7.48875 -14.69 6.54 -14.5625 5.5625 C-13.07453667 -1.87731667 -6.21524547 0.03235235 0 0 Z M-9.9375 4.4375 C-10.5975 7.0775 -11.2575 9.7175 -11.9375 12.4375 C-4.0175 12.4375 3.9025 12.4375 12.0625 12.4375 C11.4025 9.7975 10.7425 7.1575 10.0625 4.4375 C6.56154689 3.27051563 3.7502768 3.30481713 0.0625 3.3125 C-1.175 3.30992188 -2.4125 3.30734375 -3.6875 3.3046875 C-6.94980773 3.28758698 -6.94980773 3.28758698 -9.9375 4.4375 Z " fill="#000000" transform="translate(23.9375,5.5625)"/>
<path d="M0 0 C1 1 1 1 1.43359375 4.1328125 C0.84837532 9.35232825 -1.25780987 11.33856811 -4.9375 14.875 C-5.48212891 15.45507812 -6.02675781 16.03515625 -6.58789062 16.6328125 C-11.0349775 21.03362911 -14.80539574 21.98769342 -21 22 C-20.98769342 15.80539574 -20.03362911 12.0349775 -15.6328125 7.58789062 C-15.05273438 7.04326172 -14.47265625 6.49863281 -13.875 5.9375 C-13.318125 5.35806641 -12.76125 4.77863281 -12.1875 4.18164062 C-8.24434493 0.33388447 -5.70745994 -0.78993523 0 0 Z " fill="#000000" transform="translate(45,24)"/>
<path d="M0 0 C3.3 0 6.6 0 10 0 C10 0.99 10 1.98 10 3 C6.7 3 3.4 3 0 3 C0 2.01 0 1.02 0 0 Z " fill="#000000" transform="translate(19,28)"/>
<path d="M0 0 C1.32 0 2.64 0 4 0 C4 1.32 4 2.64 4 4 C2.68 4 1.36 4 0 4 C0 2.68 0 1.36 0 0 Z " fill="#000000" transform="translate(12,24)"/>
<path d="M0 0 C1.32 0 2.64 0 4 0 C3.34 1.32 2.68 2.64 2 4 C1.34 4 0.68 4 0 4 C0 2.68 0 1.36 0 0 Z " fill="#000000" transform="translate(32,24)"/>
</svg>
