<?xml version="1.0" encoding="UTF-8"?>
<svg version="1.1" xmlns="http://www.w3.org/2000/svg" width="512" height="512">
<path d="M0 0 C0.67170719 -0.00367669 1.34341438 -0.00735338 2.03547633 -0.01114148 C4.27354692 -0.02210422 6.51157097 -0.02600955 8.74966431 -0.02983093 C10.36003769 -0.03610146 11.97040963 -0.04274877 13.58078003 -0.04974365 C18.86053471 -0.07072599 24.14028947 -0.08114434 29.42007446 -0.09111023 C31.24424886 -0.09516073 33.0684231 -0.09927773 34.8925972 -0.10346031 C43.46975436 -0.1225035 52.04690298 -0.13673329 60.6240772 -0.14507228 C70.490227 -0.15482522 80.35615129 -0.18109746 90.22222173 -0.22157317 C97.86924046 -0.25185648 105.51619503 -0.26655289 113.1632725 -0.26985329 C117.72005849 -0.27219091 122.27660336 -0.28098112 126.83332443 -0.30631447 C131.1295106 -0.32981345 135.42530064 -0.33374208 139.72153473 -0.32355309 C141.28546349 -0.32306278 142.84941322 -0.32923119 144.41328049 -0.34310913 C157.94665004 -0.45633897 171.28094018 1.35774716 183.39663696 7.83467102 C184.38071533 8.34405212 184.38071533 8.34405212 185.38467407 8.86372375 C191.5951597 12.20023633 196.90235534 16.3760871 202.08413696 21.14717102 C202.71448853 21.68599915 203.34484009 22.22482727 203.99429321 22.77998352 C223.32050181 40.3012387 230.79510031 71.67003159 240.08413696 95.14717102 C240.69499649 95.15081665 241.30585602 95.15446228 241.93522644 95.15821838 C248.31117368 95.20013057 254.68640692 95.2695374 261.06192017 95.35469055 C263.43912606 95.38286149 265.81642494 95.40409522 268.1937561 95.41816711 C271.61733476 95.43964952 275.03979986 95.48632975 278.46304321 95.53779602 C279.52060318 95.53902466 280.57816315 95.5402533 281.66777039 95.54151917 C288.00244142 95.66636665 291.92995785 96.37575683 297.08413696 100.14717102 C301.14663489 105.38910382 300.84044091 111.80781433 300.08413696 118.14717102 C298.86415011 122.07594223 297.05832439 124.51575325 293.55288696 126.78779602 C289.04969181 128.55256169 285.00476635 128.70828019 280.20913696 128.83467102 C279.32999634 128.86883118 278.45085571 128.90299133 277.54507446 128.93818665 C275.39185991 129.02010242 273.23802145 129.08532681 271.08413696 129.14717102 C271.68999634 129.70662415 272.29585571 130.26607727 272.92007446 130.84248352 C280.03856136 137.6543279 285.57603814 145.01393574 291.08413696 153.14717102 C287.71472769 154.27030744 286.9313218 154.02543752 283.65444946 153.00263977 C282.78352661 152.73862366 281.91260376 152.47460754 281.01528931 152.20259094 C279.6262439 151.77297058 279.6262439 151.77297058 278.20913696 151.33467102 C270.19203857 148.96342611 262.43558151 146.92245201 254.08413696 146.14717102 C253.42365356 146.08158997 252.76317017 146.01600891 252.08267212 145.94844055 C208.29782592 141.83343472 166.39386561 155.70387286 132.6859436 183.5148468 C124.88539697 190.08608093 117.04511904 197.29230116 111.30555725 205.77615356 C109.08413696 208.14717102 109.08413696 208.14717102 106.37480164 208.77294922 C105.3392363 208.77357864 104.30367096 208.77420807 103.23672485 208.77485657 C101.46821922 208.79463814 101.46821922 208.79463814 99.66398621 208.81481934 C98.39111252 208.80461258 97.11823883 208.79440582 95.80679321 208.78388977 C93.79291614 208.79975349 91.7790391 208.81562655 89.76516628 208.83202076 C86.94003282 208.84887297 84.11511196 208.8431071 81.28994751 208.83747864 C75.70814591 208.83016679 70.12653812 208.8620213 64.54488945 208.89992714 C62.61488105 208.9086279 60.68482405 208.90272167 58.75480652 208.8963623 C48.20573373 208.92896286 37.45327172 209.30483234 27.89663696 214.14717102 C26.83058228 214.66279602 25.76452759 215.17842102 24.66616821 215.70967102 C14.90634236 221.73108819 9.06297855 230.69277048 4.02163696 240.70967102 C3.47442993 241.76219055 2.9272229 242.81471008 2.36343384 243.89912415 C0.59190782 247.30905573 -1.16158534 250.72833385 -2.91586304 254.14717102 C-5.88586304 259.75717102 -8.85586304 265.36717102 -11.91586304 271.14717102 C18.44413696 271.47717102 48.80413696 271.80717102 80.08413696 272.14717102 C79.09413696 280.06717102 79.09413696 280.06717102 78.08413696 288.14717102 C77.75413696 293.42717102 77.42413696 298.70717102 77.08413696 304.14717102 C50.35413696 304.14717102 23.62413696 304.14717102 -3.91586304 304.14717102 C-3.91586304 312.72717102 -3.91586304 321.30717102 -3.91586304 330.14717102 C-8.77219844 344.71617721 -13.58373668 355.42845922 -27.27523804 363.00654602 C-33.94044701 366.17327426 -39.65825915 368.24096686 -47.0664978 368.32417297 C-48.06846695 368.33700821 -49.0704361 368.34984344 -50.10276794 368.36306763 C-51.71374611 368.37414803 -51.71374611 368.37414803 -53.35726929 368.38545227 C-54.4759288 368.39352402 -55.59458832 368.40159576 -56.74714661 368.40991211 C-59.11497459 368.42372905 -61.48282229 368.43446186 -63.85067749 368.44233704 C-66.2566619 368.45383343 -68.66262129 368.47424775 -71.06845093 368.50386047 C-74.56073184 368.54682098 -78.05225593 368.56274769 -81.54476929 368.57295227 C-82.60458511 368.59046036 -83.66440094 368.60796844 -84.7563324 368.62600708 C-97.90148904 368.58845263 -109.34745464 363.84986892 -119.16976929 355.15107727 C-128.29490317 345.71426899 -132.08988513 334.53520128 -131.95101929 321.66279602 C-131.95473324 319.98831072 -131.9606631 318.31382914 -131.96859741 316.63935852 C-131.97912822 314.02086183 -131.97847928 311.4050874 -131.94003296 308.78681946 C-131.43283443 296.89226892 -131.43283443 296.89226892 -136.79476929 286.76435852 C-137.49545532 286.1622052 -138.19614136 285.56005188 -138.9180603 284.93965149 C-144.27625432 280.13214074 -147.42724414 271.19401591 -148.10783005 264.16438293 C-148.18796978 261.97561731 -148.20898611 259.79443666 -148.20639038 257.60420227 C-148.21646622 256.36596962 -148.21646622 256.36596962 -148.22674561 255.10272217 C-148.24565533 252.38830951 -148.24964715 249.67414536 -148.25180054 246.95967102 C-148.25823653 245.05504763 -148.26496548 243.15042521 -148.27197266 241.24580383 C-148.28393023 237.2547324 -148.28765537 233.26374738 -148.28646851 229.2726593 C-148.28626614 224.19708367 -148.3134894 219.12207315 -148.34801292 214.04663086 C-148.37043093 210.1102604 -148.37430141 206.17402232 -148.37324905 202.2375946 C-148.3755857 200.36878017 -148.38429791 198.49996098 -148.39991379 196.63121033 C-148.5102253 182.05847718 -147.08757003 168.87742755 -140.10336304 155.77217102 C-139.76006958 155.1071759 -139.41677612 154.44218079 -139.06307983 153.7570343 C-136.22791755 148.41281537 -132.89213444 143.70962494 -128.91586304 139.14717102 C-128.4634021 138.57611633 -128.01094116 138.00506165 -127.54476929 137.41670227 C-124.96703024 134.16441469 -122.17817227 131.68873751 -118.91586304 129.14717102 C-120.2062146 129.12138977 -121.49656616 129.09560852 -122.82601929 129.06904602 C-124.54349964 129.01273519 -126.26094626 128.95538854 -127.97836304 128.89717102 C-128.82592163 128.88299133 -129.67348022 128.86881165 -130.54672241 128.85420227 C-136.4594338 128.62591226 -140.05231727 127.56051889 -144.91586304 124.14717102 C-149.19111199 118.76863202 -148.65622109 111.68561405 -147.91586304 105.14717102 C-145.61422073 100.01273819 -143.09559379 98.14137091 -137.91586304 96.14717102 C-134.14324655 95.74511185 -130.40140851 95.797818 -126.61117554 95.85420227 C-125.53205902 95.85844711 -124.4529425 95.86269196 -123.34112549 95.86706543 C-119.90744679 95.88380682 -116.47436321 95.92145158 -113.04086304 95.95967102 C-110.7075382 95.97472368 -108.37420413 95.98841107 -106.04086304 96.00068665 C-100.33232797 96.03369548 -94.62413803 96.08384997 -88.91586304 96.14717102 C-88.7328363 95.57769745 -88.54980957 95.00822388 -88.36123657 94.42149353 C-86.78339834 89.5888051 -85.05382269 84.89966303 -83.02523804 80.23310852 C-82.62708389 79.31361671 -82.62708389 79.31361671 -82.22088623 78.37554932 C-81.37353249 76.42250831 -80.52027341 74.47213417 -79.66586304 72.52217102 C-79.37451477 71.85486969 -79.0831665 71.18756836 -78.7829895 70.50004578 C-76.83759231 66.04450399 -74.87956518 61.59467406 -72.91586304 57.14717102 C-72.52753296 56.26400208 -72.13920288 55.38083313 -71.73910522 54.47090149 C-62.75051725 34.13322098 -49.22948275 15.07711051 -27.91439819 6.32539368 C-18.57969241 2.73129345 -10.11784491 0.03609732 0 0 Z M-27.46664429 46.31513977 C-35.7507633 55.89406527 -40.39844778 67.35620037 -45.39682007 78.85420227 C-46.66783248 81.77669946 -47.95279832 84.69274688 -49.24008179 87.60810852 C-50.06512132 89.48795684 -50.88936763 91.36815353 -51.71273804 93.24873352 C-52.09089661 94.10834686 -52.46905518 94.96796021 -52.8586731 95.85362244 C-53.21624695 96.67833038 -53.5738208 97.50303833 -53.94223022 98.35273743 C-54.25198792 99.06346405 -54.56174561 99.77419067 -54.88088989 100.50645447 C-56.37945136 104.33000883 -57.61720009 108.25118218 -58.91586304 112.14717102 C30.18413696 112.14717102 119.28413696 112.14717102 211.08413696 112.14717102 C209.1006102 106.19659074 207.08653402 100.57137055 204.53726196 94.88545227 C204.2029718 94.13233261 203.86868164 93.37921295 203.52426147 92.60327148 C202.82032993 91.02008051 202.11435148 89.43779817 201.40640259 87.85639954 C200.34549396 85.48505619 199.29245371 83.11033876 198.24038696 80.73506165 C186.56730826 53.19811175 186.56730826 53.19811175 163.02944946 35.86201477 C152.57366165 32.15060917 142.40268226 31.9979446 131.41714478 32.00190735 C130.05761626 31.99890951 128.69808859 31.99550555 127.33856201 31.99172974 C123.66891303 31.98294863 119.99928742 31.98055411 116.32962894 31.97991395 C114.03007074 31.97920004 111.73051836 31.97705928 109.43096161 31.97441673 C101.38891731 31.96518244 93.34688951 31.9610794 85.30484009 31.96186829 C77.84030346 31.9624684 70.37583925 31.95192473 62.91132092 31.93612462 C56.47616657 31.92299484 50.04103573 31.91768667 43.6058681 31.9183237 C39.77420927 31.91857711 35.94261488 31.91581334 32.11096954 31.90514565 C28.50263916 31.89537268 24.8944336 31.89544755 21.28609848 31.90266228 C19.35279475 31.90418487 17.41949079 31.89592593 15.48620605 31.88722229 C-1.57372628 31.9477185 -14.48142665 34.82560165 -27.46664429 46.31513977 Z M-96.91586304 198.14717102 C-99.98978941 203.03947638 -99.519795 208.57757627 -98.91586304 214.14717102 C-96.77796389 218.66051366 -94.46324004 221.09002428 -89.91586304 223.14717102 C-84.34580598 224.40882118 -78.79075911 224.30878046 -73.11117554 224.31513977 C-72.07322845 224.31846817 -71.03528137 224.32179657 -69.96588135 224.32522583 C-67.7755477 224.33027628 -65.5852064 224.33263474 -63.39486694 224.33247375 C-60.05928769 224.33465895 -56.72404005 224.35283137 -53.38851929 224.3717804 C-51.25440583 224.37471503 -49.12029081 224.37669936 -46.98617554 224.37763977 C-45.99634674 224.38482529 -45.00651794 224.3920108 -43.98669434 224.39941406 C-33.79993718 224.37169961 -33.79993718 224.37169961 -25.04086304 219.70967102 C-20.8031961 214.59954324 -20.48188206 211.59042111 -20.59945679 205.10029602 C-21.02354328 201.14215542 -22.18651363 199.02405283 -24.91586304 196.14717102 C-31.30553547 191.27084206 -39.0524014 191.98778814 -46.72055054 191.97920227 C-47.75849762 191.97587387 -48.7964447 191.97254547 -49.86584473 191.96911621 C-52.05617837 191.96406576 -54.24651967 191.9617073 -56.43685913 191.96186829 C-59.77243839 191.95968309 -63.10768602 191.94151067 -66.44320679 191.92256165 C-68.57732025 191.91962701 -70.71143527 191.91764268 -72.84555054 191.91670227 C-73.83537933 191.90951675 -74.82520813 191.90233124 -75.84503174 191.89492798 C-83.74811153 191.92076665 -91.02306465 192.25437263 -96.91586304 198.14717102 Z " fill="#000000" transform="translate(147.91586303710938,79.85282897949219)"/>
<path d="M0 0 C23.0844596 20.42958486 37.31444111 46.00626758 42.78515625 76.46484375 C42.96949219 77.47160156 43.15382813 78.47835937 43.34375 79.515625 C45.32292152 97.22307989 44.56383948 115.2898557 39.78515625 132.46484375 C39.6032373 133.13612305 39.42131836 133.80740234 39.23388672 134.49902344 C30.79353868 164.74548959 10.15148044 191.76284153 -16.91796875 207.62890625 C-47.79396119 224.82288308 -83.04611437 231.37692401 -117.68408203 221.78076172 C-151.15718996 212.1361787 -179.21570347 191.3845482 -196.51733398 160.88696289 C-205.31081656 144.69649715 -211.60398575 125.99420319 -212.21484375 107.46484375 C-212.240625 106.79324219 -212.26640625 106.12164062 -212.29296875 105.4296875 C-213.52990704 68.87816107 -202.02580732 35.01064544 -176.95141602 8.15649414 C-129.8577891 -40.42531817 -51.23777048 -43.1281953 0 0 Z M-129.02734375 55.46484375 C-132.25152929 59.88658392 -132.6651051 63.06170755 -132.21484375 68.46484375 C-128.93222751 75.99440563 -122.74904848 81.26310885 -116.96484375 86.90234375 C-115.92248215 87.92963389 -114.88080896 88.95762303 -113.83984375 89.98632812 C-111.30607173 92.48728393 -108.76308525 94.97862261 -106.21484375 97.46484375 C-107.75889008 101.17972222 -110.02116561 103.46107179 -112.8984375 106.23828125 C-113.82591797 107.14578125 -114.75339844 108.05328125 -115.70898438 108.98828125 C-117.17885763 110.41477155 -118.65112829 111.83867278 -120.1262207 113.25976562 C-121.55681228 114.64172045 -122.97773091 116.03366625 -124.3984375 117.42578125 C-125.67545532 118.66013916 -125.67545532 118.66013916 -126.97827148 119.91943359 C-130.28119394 123.67844129 -132.05575463 126.98001201 -132.58984375 131.96484375 C-132.01476279 137.33226608 -130.26105295 140.76458999 -126.21484375 144.27734375 C-121.79310358 147.50152929 -118.61797995 147.9151051 -113.21484375 147.46484375 C-105.68528187 144.18222751 -100.41657865 137.99904848 -94.77734375 132.21484375 C-93.75005361 131.17248215 -92.72206447 130.13080896 -91.69335938 129.08984375 C-89.19240357 126.55607173 -86.70106489 124.01308525 -84.21484375 121.46484375 C-80.49996528 123.00889008 -78.21861571 125.27116561 -75.44140625 128.1484375 C-74.53390625 129.07591797 -73.62640625 130.00339844 -72.69140625 130.95898438 C-71.26491595 132.42885763 -69.84101472 133.90112829 -68.41992188 135.3762207 C-67.03796705 136.80681228 -65.64602125 138.22773091 -64.25390625 139.6484375 C-63.43100098 140.49978271 -62.6080957 141.35112793 -61.76025391 142.22827148 C-58.00124621 145.53119394 -54.69967549 147.30575463 -49.71484375 147.83984375 C-44.34742142 147.26476279 -40.91509751 145.51105295 -37.40234375 141.46484375 C-34.17815821 137.04310358 -33.7645824 133.86797995 -34.21484375 128.46484375 C-37.49745999 120.93528187 -43.68063902 115.66657865 -49.46484375 110.02734375 C-50.50720535 109.00005361 -51.54887854 107.97206447 -52.58984375 106.94335938 C-55.12361577 104.44240357 -57.66660225 101.95106489 -60.21484375 99.46484375 C-58.67079742 95.74996528 -56.40852189 93.46861571 -53.53125 90.69140625 C-52.60376953 89.78390625 -51.67628906 88.87640625 -50.72070312 87.94140625 C-49.25082987 86.51491595 -47.77855921 85.09101472 -46.3034668 83.66992188 C-44.87287522 82.28796705 -43.45195659 80.89602125 -42.03125 79.50390625 C-40.75423218 78.26954834 -40.75423218 78.26954834 -39.45141602 77.01025391 C-36.14849356 73.25124621 -34.37393287 69.94967549 -33.83984375 64.96484375 C-34.41492471 59.59742142 -36.16863455 56.16509751 -40.21484375 52.65234375 C-44.63658392 49.42815821 -47.81170755 49.0145824 -53.21484375 49.46484375 C-60.74440563 52.74745999 -66.01310885 58.93063902 -71.65234375 64.71484375 C-72.67963389 65.75720535 -73.70762303 66.79887854 -74.73632812 67.83984375 C-77.23728393 70.37361577 -79.72862261 72.91660225 -82.21484375 75.46484375 C-85.92972222 73.92079742 -88.21107179 71.65852189 -90.98828125 68.78125 C-91.89578125 67.85376953 -92.80328125 66.92628906 -93.73828125 65.97070312 C-95.16477155 64.50082987 -96.58867278 63.02855921 -98.00976562 61.5534668 C-99.39172045 60.12287522 -100.78366625 58.70195659 -102.17578125 57.28125 C-102.99868652 56.42990479 -103.8215918 55.57855957 -104.66943359 54.70141602 C-108.42844129 51.39849356 -111.73001201 49.62393287 -116.71484375 49.08984375 C-122.08226608 49.66492471 -125.51458999 51.41863455 -129.02734375 55.46484375 Z " fill="#000000" transform="translate(467.21484375,285.53515625)"/>
</svg>
